# xmcd
#
# Track frame offsets: 
#        150
#        17073
#        35988
#        55253
#        75671
#        101652
#        124501
#        142646
#        157623
#        182468
#        207745
#        226756
#        246922
#
# Disc length: 3517 seconds
#
# Revision: 0
# Processed by: cddbd v1.5.2PL0 Copyright (c) Steve Scherf et al.
# Submitted via: ExactAudioCopy v0.99pb4
#
DISCID=9f0dbb0d
DTITLE=Timo Gross  - Travellin'
DYEAR=2007
DGENRE=Blues
TTITLE0=Cheap Ride
TTITLE1=In the Skillet
TTITLE2=Lovesick
TTITLE3=The Letter
TTITLE4=Gone Mad
TTITLE5=Stranger
TTITLE6=Circles
TTITLE7=Sing and Swing
TTITLE8=Struttin?Pt 2
TTITLE9=Bitches Brew
TTITLE10=One More Time
TTITLE11=Travellin?
TTITLE12=Stranger Pt 2
EXTD=
EXTT0=
EXTT1=
EXTT2=
EXTT3=
EXTT4=
EXTT5=
EXTT6=
EXTT7=
EXTT8=
EXTT9=
EXTT10=
EXTT11=
EXTT12=
PLAYORDER=
